<?xml version="1.0" encoding="UTF-8" standalone="no"?>
<!DOCTYPE svg PUBLIC "-//W3C//DTD SVG 1.1//EN" "http://www.w3.org/Graphics/SVG/1.1/DTD/svg11.dtd">
<svg width="100%" height="100%" viewBox="0 0 839 200" version="1.1" xmlns="http://www.w3.org/2000/svg" xmlns:xlink="http://www.w3.org/1999/xlink" xml:space="preserve" style="fill-rule:evenodd;clip-rule:evenodd;stroke-linejoin:round;stroke-miterlimit:1.41421;">
    <g id="XMLID_62_">
        <path id="XMLID_106_" d="M122.5,90.6L70.1,0L0,0L57.8,100L0,200L70.1,200L122.5,109.4C125.8,103.6 125.8,96.4 122.5,90.6L122.5,90.6Z" style="fill:none;"/>
        <path id="XMLID_105_" d="M92.4,159.8L75.8,131.1L35.9,200L70.1,200L92.9,160.6L92.4,159.8Z" style="fill:rgb(255,193,7);fill-rule:nonzero;"/>
        <path id="XMLID_104_" d="M122.5,90.6L70.1,0L0,0L57.8,100L0,200L70.1,200L122.5,109.4C125.8,103.6 125.8,96.4 122.5,90.6L122.5,90.6Z" style="fill:none;"/>
        <path id="XMLID_103_" d="M57.8,100L75.8,131.1L35.9,200L0,200L57.8,100Z" style="fill:rgb(15,157,88);fill-rule:nonzero;"/>
        <path id="XMLID_102_" d="M122.5,90.6L70.1,0L0,0L57.8,100L0,200L70.1,200L122.5,109.4C125.8,103.6 125.8,96.4 122.5,90.6L122.5,90.6Z" style="fill:none;"/>
        <path id="XMLID_101_" d="M70.1,198.4L36.8,198.4L35.9,200L70.1,200L92.9,160.6L92.4,159.8L70.1,198.4Z" style="fill:rgb(191,54,12);fill-opacity:0.2;fill-rule:nonzero;"/>
        <path id="XMLID_100_" d="M122.5,90.6L70.1,0L0,0L57.8,100L0,200L70.1,200L122.5,109.4C125.8,103.6 125.8,96.4 122.5,90.6L122.5,90.6Z" style="fill:none;"/>
        <path id="XMLID_99_" d="M0.9,198.4L0,200L35.9,200L36.8,198.4L0.9,198.4Z" style="fill:rgb(38,50,56);fill-opacity:0.2;fill-rule:nonzero;"/>
        <path id="XMLID_98_" d="M122.5,90.6L70.1,0L0,0L57.8,100L0,200L70.1,200L122.5,109.4C125.8,103.6 125.8,96.4 122.5,90.6L122.5,90.6Z" style="fill:none;"/>
        <path id="XMLID_96_" d="M0,200L0.9,200L58.3,100.8L57.8,100L0,200Z" style="fill:white;fill-opacity:0.2;fill-rule:nonzero;"/>
        <path id="XMLID_94_" d="M122.5,90.6L70.1,0L0,0L57.8,100L0,200L70.1,200L122.5,109.4C125.8,103.6 125.8,96.4 122.5,90.6L122.5,90.6Z" style="fill:none;"/>
        <path id="XMLID_92_" d="M92.9,160.6L75.8,131.1L71.6,138.3L92.9,160.6Z" style="fill:url(#_Radial1);fill-rule:nonzero;"/>
        <path id="XMLID_90_" d="M122.5,90.6L70.1,0L0,0L57.8,100L0,200L70.1,200L122.5,109.4C125.8,103.6 125.8,96.4 122.5,90.6L122.5,90.6Z" style="fill:none;"/>
        <path id="XMLID_89_" d="M71.6,138.3L75.8,131.1L57.8,100L49.3,114.8L71.6,138.3Z" style="fill:url(#_Radial2);fill-rule:nonzero;"/>
        <path id="XMLID_88_" d="M122.5,90.6L70.1,0L0,0L57.8,100L0,200L70.1,200L122.5,109.4C125.8,103.6 125.8,96.4 122.5,90.6L122.5,90.6Z" style="fill:none;"/>
        <path id="XMLID_87_" d="M35.9,0L0,0L92.9,160.6L110.8,129.5L35.9,0Z" style="fill:rgb(66,133,244);fill-rule:nonzero;"/>
        <path id="XMLID_84_" d="M122.5,90.6L70.1,0L0,0L57.8,100L0,200L70.1,200L122.5,109.4C125.8,103.6 125.8,96.4 122.5,90.6L122.5,90.6Z" style="fill:none;"/>
        <path id="XMLID_83_" d="M122.5,109.4C125.9,103.6 125.9,96.4 122.5,90.6L70.1,0L35.9,0L110.8,129.5L122.5,109.4L122.5,109.4Z" style="fill:rgb(219,68,55);fill-rule:nonzero;"/>
        <path id="XMLID_82_" d="M122.5,90.6L70.1,0L0,0L57.8,100L0,200L70.1,200L122.5,109.4C125.8,103.6 125.8,96.4 122.5,90.6L122.5,90.6Z" style="fill:none;"/>
        <path id="XMLID_71_" d="M110.8,129.5L110.4,128.7L92.9,159L0.9,0L0,0L92.9,160.6L110.8,129.5L110.8,129.5Z" style="fill:rgb(26,35,126);fill-opacity:0.2;fill-rule:nonzero;"/>
        <path id="XMLID_69_" d="M122.5,90.6L70.1,0L0,0L57.8,100L0,200L70.1,200L122.5,109.4C125.8,103.6 125.8,96.4 122.5,90.6L122.5,90.6Z" style="fill:none;"/>
        <path id="XMLID_67_" d="M70.1,1.6L122.5,92.2C124,94.9 124.8,97.8 125,100.8C125.1,97.3 124.3,93.8 122.5,90.6L70.1,0L0,0L0.9,1.6L70.1,1.6Z" style="fill:white;fill-opacity:0.2;fill-rule:nonzero;"/>
        <path id="XMLID_66_" d="M122.5,90.6L70.1,0L0,0L57.8,100L0,200L70.1,200L122.5,109.4C125.8,103.6 125.8,96.4 122.5,90.6L122.5,90.6Z" style="fill:none;"/>
        <path id="XMLID_65_" d="M110.8,129.5L122.4,109.4C124.2,106.3 125,102.7 124.9,99.2C124.8,102.2 124,105.1 122.4,107.8L110.3,128.7L110.8,129.5Z" style="fill:rgb(62,39,35);fill-opacity:0.2;fill-rule:nonzero;"/>
        <path id="XMLID_64_" d="M122.5,90.6L70.1,0L0,0L57.8,100L0,200L70.1,200L122.5,109.4C125.8,103.6 125.8,96.4 122.5,90.6L122.5,90.6Z" style="fill:none;"/>
        <path id="XMLID_63_" d="M122.5,90.6L70.1,0L0,0L57.8,100L0,200L70.1,200L122.5,109.4C125.8,103.6 125.8,96.4 122.5,90.6L122.5,90.6Z" style="fill:url(#_Radial3);fill-rule:nonzero;"/>
    </g>
    <g transform="matrix(1,0,0,1,17,48)">
        <g id="XMLID_7_">
            <g>
                <text x="145.664px" y="38.161px" style="font-family:'ProductSans-Regular', 'Product Sans', sans-serif;font-size:104px;fill:white;">GDG DevFest</text>
                <text x="145.664px" y="142.161px" style="font-family:'ProductSans-Regular', 'Product Sans', sans-serif;font-size:104px;fill:white;">Season 2018</text>
            </g>
        </g>
    </g>
    <defs>
        <radialGradient id="_Radial1" cx="0" cy="0" r="1" gradientUnits="userSpaceOnUse" gradientTransform="matrix(69.162,0,0,-69.162,92.62,159.959)"><stop offset="0" style="stop-color:rgb(191,54,12);stop-opacity:0.2"/><stop offset="1" style="stop-color:rgb(191,54,12);stop-opacity:0.0196078"/></radialGradient>
        <radialGradient id="_Radial2" cx="0" cy="0" r="1" gradientUnits="userSpaceOnUse" gradientTransform="matrix(69.723,0,0,-69.723,92.423,160.397)"><stop offset="0" style="stop-color:rgb(38,50,56);stop-opacity:0.2"/><stop offset="1" style="stop-color:rgb(38,50,56);stop-opacity:0.0196078"/></radialGradient>
        <radialGradient id="_Radial3" cx="0" cy="0" r="1" gradientUnits="userSpaceOnUse" gradientTransform="matrix(209.922,0,0,-209.922,-1.563,1.562)"><stop offset="0" style="stop-color:white;stop-opacity:0.0980392"/><stop offset="1" style="stop-color:white;stop-opacity:0"/></radialGradient>
    </defs>
</svg>
